<svg width="73" height="273" viewBox="0 0 73 273" fill="none" xmlns="http://www.w3.org/2000/svg">
<g style="mix-blend-mode:darken" filter="url(#filter0_d)">
<rect x="4" width="65" height="265" fill="#98838F"/>
</g>
<g filter="url(#filter1_ddd)">
<path d="M39.82 248.078L38.2868 248.069L38.2522 253.987L33.389 253.958L33.4294 247.054L31.8864 247.045L31.8353 255.776L46.0538 255.859L46.0645 254.033L39.7853 253.996L39.82 248.078ZM31.9686 233.004L31.9584 234.752L41.5869 234.838C42.01 234.854 42.4165 234.924 42.8064 235.05C43.1963 235.176 43.5403 235.357 43.8384 235.593C44.143 235.836 44.3854 236.134 44.5656 236.486C44.7394 236.839 44.8249 237.246 44.8222 237.709C44.8195 238.171 44.7259 238.581 44.5415 238.938C44.3572 239.288 44.1146 239.58 43.8137 239.812C43.5128 240.051 43.1667 240.235 42.7753 240.363C42.384 240.484 41.9767 240.547 41.5535 240.551L31.9245 240.534L31.9145 242.252L41.5431 242.328C42.2072 242.326 42.8329 242.212 43.4201 241.988C44.0009 241.763 44.5073 241.45 44.9393 241.049C45.3779 240.648 45.7225 240.165 45.9732 239.6C46.2239 239.035 46.3513 238.408 46.3553 237.718C46.3593 237.041 46.2392 236.418 45.9952 235.85C45.7446 235.282 45.4024 234.792 44.9686 234.379C44.5413 233.967 44.0387 233.642 43.4606 233.404C42.8826 233.166 42.2615 233.045 41.5975 233.041L31.9686 233.004ZM46.269 219.096L32.0505 219.012L32.0398 220.839L42.6449 220.93L32.0074 226.385L31.9966 228.221L46.2151 228.305L46.2258 226.478L35.6012 226.387L46.2583 220.932L46.269 219.096ZM40.066 206.044L38.5328 206.035L38.4982 211.952L33.635 211.924L33.6754 205.02L32.1325 205.011L32.0814 213.741L46.2999 213.824L46.3106 211.998L40.0314 211.961L40.066 206.044ZM42.739 193.17L46.4272 192.069L46.4377 190.272L32.1928 194.7L32.1839 196.214L46.3756 200.887L46.3862 199.08L42.7113 197.916L42.739 193.17ZM41.1419 197.419L34.9813 195.478L41.164 193.64L41.1419 197.419ZM42.2395 176.734L42.229 178.54C42.6583 178.601 43.0581 178.704 43.4283 178.85C43.7921 178.995 44.1067 179.189 44.3722 179.432C44.6442 179.674 44.8541 179.972 45.0018 180.324C45.1495 180.67 45.222 181.08 45.2192 181.556C45.2166 181.992 45.146 182.372 45.0074 182.697C44.8623 183.022 44.6653 183.304 44.4165 183.543C44.1742 183.783 43.8931 183.98 43.5732 184.134C43.2533 184.288 42.9107 184.413 42.5456 184.509C42.187 184.604 41.822 184.674 41.4506 184.717C41.0728 184.754 40.7081 184.772 40.3565 184.77L38.3546 184.758C38.0031 184.756 37.6419 184.734 37.271 184.693C36.8937 184.645 36.5263 184.571 36.1688 184.472C35.8113 184.372 35.4735 184.243 35.1554 184.085C34.8373 183.92 34.5586 183.717 34.3191 183.474C34.0796 183.239 33.8924 182.958 33.7576 182.631C33.6163 182.298 33.5469 181.917 33.5495 181.487C33.5522 181.012 33.636 180.602 33.8008 180.258C33.9591 179.908 34.1789 179.613 34.4603 179.374C34.7416 179.134 35.0683 178.944 35.4402 178.803C35.8121 178.662 36.2131 178.564 36.6431 178.507L36.6537 176.701C35.9762 176.775 35.3567 176.934 34.7954 177.178C34.2341 177.416 33.7505 177.735 33.3445 178.137C32.945 178.538 32.6362 179.018 32.418 179.576C32.1934 180.135 32.079 180.769 32.0749 181.479C32.0714 182.071 32.1529 182.606 32.3194 183.082C32.4794 183.558 32.7048 183.983 32.9956 184.355C33.2863 184.735 33.6327 185.062 34.0347 185.338C34.4303 185.607 34.8619 185.831 35.3297 186.01C35.7973 186.195 36.2881 186.334 36.8018 186.428C37.3157 186.516 37.8362 186.565 38.3635 186.574L40.3459 186.586C40.8733 186.582 41.3944 186.54 41.9092 186.458C42.424 186.37 42.9164 186.236 43.3862 186.057C43.8559 185.884 44.2902 185.665 44.6889 185.4C45.0876 185.129 45.4345 184.806 45.7297 184.43C46.0248 184.06 46.2584 183.639 46.4305 183.164C46.5961 182.684 46.6806 182.15 46.684 181.564C46.688 180.881 46.5842 180.262 46.3726 179.707C46.1545 179.146 45.8481 178.659 45.4534 178.246C45.0651 177.841 44.5983 177.509 44.0529 177.252C43.5011 176.995 42.8966 176.822 42.2395 176.734ZM33.9255 162.292L32.3825 162.283L32.3208 172.83L33.8638 172.839L33.8895 168.444L46.565 168.518L46.5753 166.761L33.8998 166.686L33.9255 162.292ZM40.4741 134.648L38.853 134.639C38.3452 134.642 37.8306 134.685 37.3093 134.766C36.788 134.842 36.286 134.962 35.8033 135.129C35.3205 135.302 34.87 135.52 34.4517 135.785C34.027 136.043 33.6574 136.353 33.3427 136.716C33.0281 137.079 32.7815 137.497 32.603 137.971C32.4179 138.446 32.3236 138.976 32.3202 139.562C32.3168 140.147 32.4048 140.679 32.5843 141.155C32.7574 141.625 32.9991 142.043 33.3094 142.409C33.6263 142.776 33.9955 143.094 34.4171 143.363C34.8323 143.626 35.2802 143.843 35.761 144.015C36.2417 144.194 36.7423 144.327 37.2626 144.415C37.7765 144.496 38.2873 144.541 38.795 144.551L40.4161 144.56C40.9239 144.557 41.4353 144.514 41.9501 144.432C42.4649 144.351 42.9637 144.224 43.4465 144.051C43.9292 143.884 44.383 143.669 44.8077 143.404C45.2259 143.14 45.5924 142.826 45.907 142.463C46.2216 142.101 46.4714 141.685 46.6565 141.218C46.835 140.744 46.926 140.213 46.9295 139.628C46.9329 139.042 46.8481 138.514 46.675 138.044C46.4955 137.568 46.2506 137.146 45.9402 136.78C45.6299 136.413 45.2671 136.099 44.852 135.836C44.4369 135.567 43.989 135.346 43.5082 135.174C43.0274 135.002 42.5301 134.875 42.0163 134.794C41.4959 134.706 40.9819 134.658 40.4741 134.648ZM38.8231 136.426L40.4637 136.435C40.8022 136.444 41.1568 136.469 41.5277 136.51C41.8986 136.545 42.2628 136.609 42.6203 136.702C42.9843 136.802 43.3319 136.931 43.663 137.089C43.9876 137.24 44.273 137.431 44.5191 137.66C44.7716 137.896 44.9718 138.177 45.1196 138.504C45.2675 138.824 45.3402 139.195 45.3377 139.618C45.3352 140.041 45.2582 140.412 45.1066 140.73C44.955 141.048 44.7515 141.324 44.4962 141.557C44.2475 141.79 43.9566 141.983 43.6237 142.138C43.2908 142.292 42.9417 142.417 42.5766 142.512C42.2179 142.608 41.8529 142.677 41.4816 142.721C41.1103 142.758 40.7586 142.778 40.4265 142.783L38.7859 142.773C38.4539 142.765 38.1057 142.74 37.7414 142.699C37.3706 142.651 37.0032 142.577 36.6392 142.477C36.2816 142.384 35.9406 142.259 35.616 142.1C35.2849 141.942 34.993 141.745 34.7405 141.509C34.4945 141.274 34.2975 140.996 34.1497 140.676C34.0018 140.356 33.9291 139.988 33.9315 139.571C33.934 139.148 34.011 138.777 34.1626 138.459C34.3077 138.141 34.5047 137.865 34.7534 137.632C35.0087 137.4 35.3028 137.206 35.6357 137.052C35.9622 136.897 36.3047 136.772 36.6633 136.677C37.0285 136.588 37.3967 136.525 37.768 136.488C38.1328 136.451 38.4845 136.43 38.8231 136.426ZM40.5581 121.975L39.0249 121.966L38.9902 127.884L34.127 127.855L34.1675 120.951L32.6245 120.942L32.5734 129.672L46.7919 129.755L46.8026 127.929L40.5234 127.893L40.5581 121.975ZM34.3355 92.2346L32.7926 92.2256L32.7309 102.772L34.2738 102.781L34.2995 98.3869L46.9751 98.4611L46.9854 96.7033L34.3098 96.6291L34.3355 92.2346ZM47.0892 78.9712L32.8707 78.8879L32.8607 80.5969L38.9738 80.6327L38.9397 86.4627L32.8265 86.4269L32.8166 88.1261L47.0351 88.2093L47.045 86.5101L40.4729 86.4716L40.507 80.6417L47.0792 80.6801L47.0892 78.9712ZM40.5926 66.015L39.0594 66.006L39.0247 71.9434L34.4545 71.9166L34.4945 65.0808L32.9515 65.0718L32.9009 73.7142L47.1194 73.7974L47.1705 65.0671L45.6374 65.0581L45.5968 71.9818L40.5579 71.9524L40.5926 66.015ZM47.2819 46.0381L47.3012 42.7472C47.2987 42.0636 47.221 41.4283 47.0682 40.8415C46.9154 40.2481 46.6939 39.7162 46.4037 39.2458C46.1263 38.8014 45.7901 38.3991 45.3951 38.0387C45.0001 37.6783 44.5591 37.3795 44.0722 37.1422C43.6048 36.9116 43.0915 36.7361 42.5323 36.6156C41.9731 36.4887 41.3811 36.4234 40.7561 36.4197L39.7112 36.4136C39.0601 36.4163 38.4477 36.4811 37.8741 36.6079C37.3004 36.7283 36.772 36.9075 36.2889 37.1455C35.7209 37.4091 35.2208 37.7643 34.7885 38.211C34.3497 38.6511 33.9951 39.1601 33.7248 39.738C33.5271 40.1535 33.3747 40.6083 33.2676 41.1025C33.1541 41.5901 33.0924 42.1106 33.0827 42.664L33.0634 45.9549L47.2819 46.0381ZM34.5585 44.1277L34.567 42.6726C34.5762 42.2235 34.6307 41.8104 34.7305 41.4333C34.8239 41.0563 34.9561 40.7153 35.1272 40.4103C35.3575 39.9819 35.6591 39.6223 36.0319 39.3316C36.3982 39.0342 36.8098 38.799 37.2665 38.6259C37.6189 38.4912 38.0003 38.3925 38.4109 38.3298C38.8149 38.2606 39.2383 38.224 39.6811 38.2201L40.7455 38.2263C41.1817 38.2354 41.6014 38.2736 42.0046 38.3411C42.4014 38.4085 42.7719 38.5084 43.1162 38.6406C43.5385 38.7928 43.9214 39.0001 44.2649 39.2626C44.6019 39.5184 44.8866 39.8228 45.1189 40.1758C45.3448 40.5091 45.5184 40.891 45.6396 41.3214C45.7608 41.7453 45.8231 42.2177 45.8266 42.7386L45.8181 44.1936L34.5585 44.1277ZM43.7232 25.0326L47.4113 23.9311L47.4218 22.1343L33.1769 26.5627L33.1681 28.0763L47.3597 32.7493L47.3703 30.9427L43.6954 29.7786L43.7232 25.0326ZM42.126 29.2811L35.9654 27.3407L42.1481 25.5019L42.126 29.2811ZM40.3916 13.5988L33.2341 16.7894L33.2221 18.8499L42.1638 14.4783L47.4666 14.4801L47.4765 12.8004L42.174 12.7401L33.284 8.26416L33.272 10.3149L40.3916 13.5988Z" fill="white"/>
</g>
<defs>
<filter id="filter0_d" x="0" y="0" width="73" height="273" filterUnits="userSpaceOnUse" color-interpolation-filters="sRGB">
<feFlood flood-opacity="0" result="BackgroundImageFix"/>
<feColorMatrix in="SourceAlpha" type="matrix" values="0 0 0 0 0 0 0 0 0 0 0 0 0 0 0 0 0 0 127 0"/>
<feOffset dy="4"/>
<feGaussianBlur stdDeviation="2"/>
<feColorMatrix type="matrix" values="0 0 0 0 0 0 0 0 0 0 0 0 0 0 0 0 0 0 0.25 0"/>
<feBlend mode="normal" in2="BackgroundImageFix" result="effect1_dropShadow"/>
<feBlend mode="normal" in="SourceGraphic" in2="effect1_dropShadow" result="shape"/>
</filter>
<filter id="filter1_ddd" x="27.8353" y="8.26416" width="23.6411" height="255.595" filterUnits="userSpaceOnUse" color-interpolation-filters="sRGB">
<feFlood flood-opacity="0" result="BackgroundImageFix"/>
<feColorMatrix in="SourceAlpha" type="matrix" values="0 0 0 0 0 0 0 0 0 0 0 0 0 0 0 0 0 0 127 0"/>
<feOffset dy="4"/>
<feGaussianBlur stdDeviation="2"/>
<feColorMatrix type="matrix" values="0 0 0 0 0 0 0 0 0 0 0 0 0 0 0 0 0 0 0.25 0"/>
<feBlend mode="normal" in2="BackgroundImageFix" result="effect1_dropShadow"/>
<feColorMatrix in="SourceAlpha" type="matrix" values="0 0 0 0 0 0 0 0 0 0 0 0 0 0 0 0 0 0 127 0"/>
<feOffset dy="4"/>
<feGaussianBlur stdDeviation="2"/>
<feColorMatrix type="matrix" values="0 0 0 0 0 0 0 0 0 0 0 0 0 0 0 0 0 0 0.25 0"/>
<feBlend mode="normal" in2="effect1_dropShadow" result="effect2_dropShadow"/>
<feColorMatrix in="SourceAlpha" type="matrix" values="0 0 0 0 0 0 0 0 0 0 0 0 0 0 0 0 0 0 127 0"/>
<feOffset dy="4"/>
<feGaussianBlur stdDeviation="2"/>
<feColorMatrix type="matrix" values="0 0 0 0 0 0 0 0 0 0 0 0 0 0 0 0 0 0 0.25 0"/>
<feBlend mode="normal" in2="effect2_dropShadow" result="effect3_dropShadow"/>
<feBlend mode="normal" in="SourceGraphic" in2="effect3_dropShadow" result="shape"/>
</filter>
</defs>
</svg>
