<?xml version="1.0" encoding="UTF-8" standalone="no"?>
<svg
   xmlns:dc="http://purl.org/dc/elements/1.1/"
   xmlns:cc="http://creativecommons.org/ns#"
   xmlns:rdf="http://www.w3.org/1999/02/22-rdf-syntax-ns#"
   xmlns:svg="http://www.w3.org/2000/svg"
   xmlns="http://www.w3.org/2000/svg"
   xmlns:sodipodi="http://sodipodi.sourceforge.net/DTD/sodipodi-0.dtd"
   xmlns:inkscape="http://www.inkscape.org/namespaces/inkscape"
   width="357.37616"
   height="403.03699"
   viewBox="0 0 357.37616 403.03699"
   version="1.1"
   id="svg2216"
   inkscape:version="1.0.1 (3bc2e813f5, 2020-09-07)"
   sodipodi:docname="cat-paw-print-silhouette-dddddd.svg">
  <defs
     id="defs2210" />
  <sodipodi:namedview
     id="base"
     pagecolor="#ffffff"
     bordercolor="#666666"
     borderopacity="1.0"
     inkscape:pageopacity="0.0"
     inkscape:pageshadow="2"
     inkscape:zoom="0.49497475"
     inkscape:cx="386.74976"
     inkscape:cy="185.25538"
     inkscape:document-units="px"
     inkscape:current-layer="layer1"
     showgrid="false"
     units="px"
     inkscape:window-width="1366"
     inkscape:window-height="705"
     inkscape:window-x="-8"
     inkscape:window-y="-8"
     inkscape:window-maximized="1"
     fit-margin-top="10"
     fit-margin-left="10"
     fit-margin-bottom="20"
     fit-margin-right="10"
     inkscape:showpageshadow="false"
     inkscape:document-rotation="0"
     lock-margins="false" />
  <metadata
     id="metadata2213">
    <rdf:RDF>
      <cc:Work
         rdf:about="">
        <dc:format>image/svg+xml</dc:format>
        <dc:type
           rdf:resource="http://purl.org/dc/dcmitype/StillImage" />
        <dc:title></dc:title>
      </cc:Work>
    </rdf:RDF>
  </metadata>
  <g
     inkscape:label="Layer 1"
     inkscape:groupmode="layer"
     id="layer1"
     transform="translate(100.06726,-11.551067)">
    <path
       inkscape:connector-curvature="0"
       id="path1014"
       d="m 146.36146,393.67675 c -4.70648,-0.40774 -8.07977,-1.72635 -10.70967,-4.18631 -0.51075,-0.47772 -1.77628,-2.04078 -2.81235,-3.47344 -5.24673,-7.25532 -9.36264,-10.74657 -13.84498,-11.74381 -1.78568,-0.39728 -4.00638,-0.27905 -5.43317,0.28921 -2.35393,0.93758 -3.67724,2.2116 -7.63127,7.34717 -2.77489,3.60407 -4.47584,5.3077 -6.381114,6.39127 -5.188269,2.9506 -12.025368,4.39582 -23.075559,4.87766 -11.212789,0.48894 -20.058889,-0.79699 -25.999257,-3.77939 -2.802712,-1.40711 -4.259565,-2.63124 -6.591031,-5.53801 -7.064762,-8.80807 -13.464827,-11.62888 -19.833082,-8.74139 -1.691533,0.76695 -3.279556,1.94052 -4.818131,3.5606 -1.61945,1.70521 -2.724103,3.3604 -4.077772,6.11006 -1.275715,2.5913 -2.338292,3.76195 -4.370448,4.81502 -3.8701227,2.00545 -8.8701552,2.74557 -19.7999779,2.93088 -5.4262511,0.092 -6.5496461,0.0634 -7.9500791,-0.20205 -9.218136,-1.74724 -22.102753,-11.5814 -31.529347,-24.06477 -7.396803,-9.79534 -11.87809,-20.04475 -12.858661,-29.40974 -0.271597,-2.594 -0.114624,-8.86071 0.29738,-11.87142 0.978501,-7.15036 2.881144,-13.37975 6.045678,-19.79393 4.763323,-9.65477 11.415603,-17.45719 19.467102,-22.83282 4.694062,-3.13403 8.377794,-4.54261 20.487524,-7.83404 11.4947422,-3.12428 16.118138,-5.24651 22.1357501,-10.16075 7.8062399,-6.37492 13.3515679,-14.38619 17.9126009,-25.87816 1.538083,-3.87531 3.086678,-8.44972 5.792597,-17.11062 1.180668,-3.77901 2.396532,-7.49983 2.701877,-8.26853 3.75995,-9.46509 14.214332,-16.25053 29.33192,-19.0379 4.923417,-0.90776 7.625513,-1.12382 14.032349,-1.12201 6.44315,0.002 8.220884,0.17529 13.170212,1.28538 12.606129,2.82731 24.800869,10.45888 31.591659,19.77033 2.68596,3.68293 4.43226,8.24003 7.47673,19.51128 4.21197,15.5935 5.81059,20.39293 8.76106,26.30258 2.15882,4.32397 4.21976,7.27601 7.02476,10.06212 2.9323,2.91254 5.83042,5.06671 9.24472,6.8717 3.93361,2.0795 7.38805,3.14287 15.46362,4.76013 8.89344,1.78101 12.33074,2.78134 16.5521,4.81691 7.05365,3.4013 13.1283,10.28272 17.06603,19.33267 3.39571,7.80416 5.20719,16.40122 5.71688,27.13173 0.40613,8.54969 -0.68506,14.30111 -4.2005,22.13976 -6.84644,15.26599 -23.25386,32.15544 -34.99447,36.02256 -1.51299,0.49836 -1.9249,0.54546 -6.44856,0.73716 -5.47635,0.23209 -14.13744,0.22335 -16.91312,-0.0164 z m 49.06665,-135.56832 c -5.25896,-0.74407 -10.00413,-3.08826 -14.10233,-6.96679 -9.85158,-9.32352 -15.54211,-26.48959 -15.54211,-46.88441 0,-33.74054 15.37222,-66.67893 35.93878,-77.00678 3.81516,-1.91587 7.26043,-2.82819 11.26931,-2.98418 4.85013,-0.18867 8.98284,0.78773 12.91719,3.05206 8.92744,5.13794 15.61821,16.10035 18.85258,30.88862 1.50564,6.88428 2.10418,15.84806 1.70316,25.50764 -0.25147,6.05786 -0.53019,8.93831 -1.32243,13.66677 -2.90385,17.33162 -9.55839,33.1242 -18.90137,44.85687 -1.8143,2.2783 -5.98007,6.49194 -8.13802,8.23145 -4.68289,3.77488 -9.49092,6.20784 -14.40404,7.28871 -1.34477,0.29584 -6.97076,0.53396 -8.27072,0.35004 z m -240.965677,-1.00884 c -3.469395,-0.33743 -6.040359,-1.11992 -9.757577,-2.96979 -11.05441,-5.50123 -21.118739,-18.59259 -27.496995,-35.76723 -5.028569,-13.54035 -7.098803,-27.41598 -6.431173,-43.10455 0.240716,-5.65638 0.650994,-9.30711 1.511251,-13.44705 3.495523,-16.82212 11.876499,-28.73311 22.566409,-32.07121 2.700979,-0.84343 3.57523,-0.96466 6.969699,-0.96638 3.575773,-0.002 5.07447,0.22608 8.084319,1.22891 17.078354,5.69073 32.186175,29.41853 36.791195,57.78292 1.119575,6.89597 1.485877,12.22182 1.348274,19.60313 -0.141137,7.57024 -0.789321,13.00133 -2.272699,19.04253 -5.036801,20.51283 -16.842859,32.0761 -31.312703,30.66872 z M 125.35943,185.43428 c -4.80117,-0.51393 -9.93164,-2.41734 -14.13233,-5.24318 -5.44865,-3.66534 -10.66526,-9.32243 -14.895278,-16.153 -1.799058,-2.90507 -5.166644,-9.64399 -6.478865,-12.96494 -3.304895,-8.36396 -5.889254,-18.6876 -7.048817,-28.15758 -1.204123,-9.83387 -1.342774,-21.45226 -0.370438,-31.038364 2.79777,-27.58272 13.775578,-50.626278 28.893408,-60.650316 9.52074,-6.312854 20.40934,-6.986781 30.30534,-1.875674 7.02252,3.626977 13.77359,10.5719 19.11479,19.663658 5.93051,10.094865 10.47699,24.081015 12.36244,38.030003 1.40107,10.36537 1.60874,22.430633 0.56307,32.711113 -2.3164,22.773 -10.26041,42.6837 -21.7181,54.43365 -3.67315,3.76683 -6.95841,6.25038 -10.83566,8.1914 -2.2854,1.14411 -5.70305,2.30697 -7.95348,2.70613 -1.64976,0.29265 -6.35881,0.50202 -7.80608,0.3471 z m -99.713157,-4.16247 c -16.5501669,-2.30157 -30.6829953,-18.75598 -38.006338,-44.24964 -4.256267,-14.81672 -5.715506,-32.33997 -4.076711,-48.955062 2.721575,-27.592959 13.706318,-50.778035 28.835374,-60.861761 3.756536,-2.503784 8.162207,-4.301996 11.546776,-4.712927 2.307466,-0.28017 8.346266,-0.280552 10.622113,-6.82e-4 5.271029,0.648206 11.794018,4.184587 17.080719,9.260198 13.399351,12.864322 22.056832,35.481795 23.639858,61.758682 0.279624,4.641444 0.120412,16.108082 -0.284402,20.483772 -3.295393,35.61919 -19.598974,62.74268 -40.231255,66.93079 -2.056047,0.41735 -7.209913,0.61309 -9.126134,0.34663 z"
       style="fill:#ffffff;fill-opacity:1;stroke:#3b3b3b;stroke-width:1.44486;stroke-miterlimit:4;stroke-dasharray:none;stroke-opacity:1" />
  </g>
<g transform="translate(10, 391.03699)">  <path
     id="path833"
     style="font-size:11px;fill:#bbbbbb"
     d="m 47.099139,1 c 0,2.785807 0,5.571615 0,8.357422 0.336589,0 0.673177,0 1.009766,0 0,-1.492839 0,-2.985677 0,-4.478516 0.734878,-0.63751 2.306024,-1.222982 2.848262,-0.08188 0.278327,0.918406 0.103034,1.896215 0.147834,2.844253 0,0.572046 0,1.144093 0,1.716139 0.336588,0 0.673177,0 1.009765,0 -0.04032,-1.586492 0.0905,-3.185124 -0.08604,-4.763334 -0.263861,-1.225268 -1.77799,-1.757192 -2.837556,-1.214394 -0.475175,0.186034 -1.286643,0.921151 -1.082273,-0.0062 0,-0.791155 0,-1.582311 0,-2.373467 -0.336584,0 -0.673195,0 -1.009763,0 z m 40.878907,0 c 0,0.866536 0,1.733073 0,2.599609 -1.267117,-0.782933 -3.219192,-0.430669 -3.852886,1.006676 -0.667723,1.336008 -0.576271,3.099777 0.360774,4.283954 0.906871,0.930935 2.547941,0.783098 3.411106,-0.125578 -0.0059,0.516749 0.258965,0.694173 0.780978,0.592761 0.450356,0.147098 0.283244,-0.323271 0.309793,-0.59998 0,-2.585814 0,-5.171628 0,-7.757442 -0.336588,0 -0.673177,0 -1.009765,0 z M 4.0815615,1.214844 c -1.270503,-0.05781 -2.818921,0.649361 -2.9887349,2.043628 -0.20654812,1.167321 0.7564776,2.214186 1.8700399,2.39622 0.9546903,0.250777 2.038458,0.16718 2.864789,0.786714 0.807458,0.95514 -0.335077,2.248639 -1.416056,2.125769 C 3.2121188,8.678893 2.013116,8.238225 1.0569583,7.53125 0.94800728,8.29909 0.89371398,9.151735 1.8828985,9.184181 3.3532105,9.640226 5.1525995,9.730388 6.4263825,8.736633 7.4106285,7.904292 7.5336745,6.057789 6.3005025,5.390254 5.1351145,4.660262 3.590645,4.994686 2.4640453,4.203468 1.7046717,3.369423 2.5975009,2.109131 3.6176791,2.16804 4.7554905,2.011058 5.9155785,2.388767 6.8503055,3.029297 6.9592325,2.289211 6.9928105,1.477595 6.0293245,1.476937 5.3965525,1.299278 4.7388495,1.210035 4.0815615,1.214844 Z m 22.2089845,0 c -1.709272,-0.09554 -3.479224,1.088445 -3.763434,2.832548 -0.432259,1.759773 -0.06573,4.017426 1.646895,4.966793 1.358741,0.736758 3.05146,0.590083 4.416527,-0.05214 0.680945,0.03217 0.625243,-2.018154 -0.120991,-1.103607 C 27.741644,8.497325 26.686445,8.667797 25.744949,8.543296 24.617107,8.4195 23.779515,7.455695 23.583414,6.374468 23.286579,5.047039 23.521074,3.377321 24.704374,2.545893 25.971075,1.760872 27.664504,2.126257 28.755674,3.052942 29.266855,3.256272 28.968358,2.14447 28.92255,1.881594 28.111496,1.465748 27.205928,1.210082 26.290546,1.214841 Z m 41.792968,0 c -1.270503,-0.05781 -2.818921,0.649361 -2.988735,2.043628 -0.206221,1.166571 0.755412,2.214135 1.868737,2.396148 0.955154,0.250725 2.038998,0.167842 2.866092,0.786786 0.803825,0.9559 -0.334598,2.248888 -1.416223,2.12578 C 67.213312,8.678851 66.014146,8.237569 65.056958,7.53125 64.952671,8.299464 64.89433,9.151633 65.884846,9.184181 67.355158,9.640226 69.154547,9.730388 70.428331,8.736633 71.412576,7.904292 71.535622,6.057789 70.30245,5.390254 69.137062,4.660262 67.592592,4.994686 66.465992,4.203468 65.706619,3.369423 66.599448,2.109131 67.619626,2.16804 68.757438,2.011058 69.917526,2.388767 70.852253,3.029297 70.96118,2.289211 70.994758,1.477595 70.031272,1.476936 69.398503,1.299278 68.7408,1.210035 68.083514,1.214844 Z m 22.837891,0.0918 c 0,0.348958 0,0.697917 0,1.046875 0.379558,0 0.759117,0 1.138675,0 0,-0.348959 0,-0.697919 0,-1.046878 -0.379558,1e-6 -0.759117,2e-6 -1.138675,3e-6 z M 37.054218,1.632815 c 0,0.57487 0,1.14974 0,1.72461 -0.890141,-0.460911 -0.977874,1.226957 -0.08956,0.84039 0.209458,0.59319 0.04113,1.317016 0.08689,1.961159 0.03983,0.871543 -0.128025,1.830592 0.318555,2.618498 0.605933,0.794843 1.91704,0.937254 2.724374,0.436826 C 40.553672,8.20257 39.57449,8.470474 38.987776,8.641231 38.033387,8.527186 38.001433,7.440683 38.063991,6.691421 c 0,-0.828133 0,-1.656266 0,-2.484399 0.694662,0 1.389323,0 2.083985,0 0.127125,-0.550494 -0.03471,-1.01834 -0.649972,-0.849609 -0.478004,0 -0.956009,0 -1.434014,0 0,-0.57487 0,-1.14974 0,-1.72461 -0.336592,5e-6 -0.673188,2e-6 -1.009778,1.2e-5 z m 35.792968,0 c 0,0.57487 0,1.14974 0,1.72461 -0.890141,-0.460911 -0.977872,1.226958 -0.08956,0.840389 0.209456,0.593191 0.04113,1.317016 0.08689,1.96116 0.03983,0.871543 -0.128025,1.830592 0.318555,2.618498 0.605932,0.794843 1.917039,0.937255 2.724373,0.436826 0.459195,-1.011729 -0.519987,-0.743824 -1.106701,-0.573067 -0.954391,-0.114044 -0.98634,-1.200549 -0.923786,-1.94981 0,-0.828133 0,-1.656266 0,-2.484399 0.694661,0 1.389323,0 2.083984,0 0.127125,-0.550494 -0.03471,-1.01834 -0.649972,-0.849609 -0.478004,0 -0.956009,0 -1.434013,0 0,-0.57487 0,-1.14974 0,-1.72461 -0.336591,5e-6 -0.673187,2e-6 -1.009776,1.2e-5 z M 18.808124,3.191409 C 18.094905,2.935351 17.239001,4.03514 16.807568,3.745844 16.924933,3.064297 15.42404,3.190079 15.784686,3.907384 c 0,1.81668 0,3.633361 0,5.450041 0.336589,0 0.673177,0 1.009766,0 0,-1.492839 0,-2.985677 0,-4.478516 0.735405,-0.637705 2.305453,-1.222485 2.849218,-0.08209 0.278696,0.901617 0.104456,1.862968 0.148831,2.794465 0,0.588713 0,1.177425 0,1.766138 0.336588,0 0.673177,0 1.009765,0 -0.04399,-1.593518 0.09877,-3.20141 -0.09401,-4.785076 -0.20719,-0.835885 -1.034297,-1.45801 -1.900131,-1.38094 z m 37.74414,0 c -1.521655,-0.106782 -2.870485,1.256511 -2.903391,2.752487 -0.187662,1.362639 0.449907,2.994629 1.887441,3.369754 1.127624,0.363449 2.364488,0.153591 3.426107,-0.321459 0,-0.367188 0,-0.734375 0,-1.101563 C 57.907373,8.60552 56.316536,9.000861 55.260559,8.083505 54.886278,7.776964 54.254723,6.45525 55.061618,6.462891 c 1.339981,0 2.679962,0 4.019943,0 C 59.160221,5.347343 58.934457,3.952653 57.79557,3.440653 57.409264,3.256935 56.977013,3.191152 56.552264,3.191409 Z m 39.789067,0 c -1.43435,-0.105366 -2.683091,1.182808 -2.741489,2.580836 -0.215182,1.416573 0.332234,3.201116 1.850159,3.631665 1.41416,0.476399 3.21103,-0.333712 3.50065,-1.869901 0.430759,-1.474988 0.0677,-3.439789 -1.4614,-4.123733 -0.36119,-0.15464 -0.75631,-0.220409 -1.14792,-0.218867 z m 16.300779,0 c -1.43435,-0.105366 -2.6831,1.182806 -2.74149,2.580836 -0.21518,1.416573 0.33223,3.201117 1.85016,3.631665 1.41416,0.476399 3.21103,-0.333712 3.50065,-1.869901 0.43076,-1.474988 0.0677,-3.439789 -1.4614,-4.123733 -0.36119,-0.15464 -0.75631,-0.220409 -1.14792,-0.218867 z m 7.2832,0 c -0.69559,-0.265373 -1.51917,0.857085 -1.9322,0.554435 0.11735,-0.681549 -1.38352,-0.555761 -1.02288,0.16154 0,1.81668 0,3.633361 0,5.450041 0.33659,0 0.67318,0 1.00977,0 0,-1.492839 0,-2.985677 0,-4.478516 0.69289,-0.640703 2.26346,-1.226266 2.74185,-0.07252 0.2374,0.922549 0.08,1.890099 0.12142,2.834903 0,0.572045 0,1.14409 0,1.716135 0.33659,0 0.67318,0 1.00977,0 -0.0184,-1.484296 0.0406,-2.969838 -0.0373,-4.453125 0.70054,-0.647981 2.28723,-1.268386 2.77851,-0.09505 0.23758,0.921564 0.0806,1.88819 0.12187,2.832036 0,0.572045 0,1.14409 0,1.716135 0.33659,0 0.67317,0 1.00976,0 -0.0368,-1.575996 0.0821,-3.161996 -0.0772,-4.731206 -0.19216,-1.116344 -1.45733,-1.724181 -2.48513,-1.365937 -0.77965,0.178711 -1.55659,1.282397 -2.09702,0.257269 -0.33141,-0.229515 -0.74,-0.337547 -1.14122,-0.326142 z M 32.478046,3.212899 C 31.83872,3.35545 30.468978,3.021271 30.522724,4.017333 c -0.153066,0.951473 1.001736,0.0084 1.530921,0.112201 0.701846,-0.07327 1.710297,-0.05734 1.99654,0.727327 0.174575,1.052501 -1.227212,0.402038 -1.837139,0.694747 -0.996071,0.09102 -2.155836,0.680376 -2.219204,1.801023 -0.147918,1.103215 0.758253,2.235243 1.909329,2.172302 0.780462,0.151097 1.757244,-0.583619 2.18709,-0.693631 -0.342005,0.814461 1.426891,0.762288 0.996486,-0.075 -0.03395,-1.410695 0.09441,-2.837608 -0.08715,-4.237248 C 34.664798,3.459355 33.464183,3.167251 32.478044,3.2129 Z m 11.404296,0.0059 c -1.504029,-0.1101 -2.896586,1.182736 -2.926571,2.687182 -0.176355,1.346973 0.370407,3.009517 1.799543,3.420825 1.006432,0.331935 2.126029,0.140974 3.048904,-0.346288 0,-0.370443 0,-0.740885 0,-1.111328 C 44.92866,8.497487 43.615859,9.003733 42.669548,8.234348 41.817468,7.402856 41.79671,5.973359 42.296661,4.953214 42.859892,3.853682 44.354119,3.932664 45.266704,4.515 45.797582,5.008321 45.862768,4.730534 45.804218,4.189913 46.002944,3.532111 45.205541,3.487446 44.749673,3.325198 44.466104,3.256018 44.1745,3.216812 43.882342,3.218799 Z m 63.195318,0 c -1.50374,-0.109716 -2.89438,1.183882 -2.92622,2.687075 -0.17586,1.346872 0.37216,3.007709 1.79939,3.421001 1.00705,0.332174 2.12691,0.140147 3.05065,-0.346357 0,-0.370443 0,-0.740885 0,-1.111328 -0.85579,0.602843 -2.08812,1.11006 -3.04591,0.433796 -0.97471,-0.825288 -0.99108,-2.4035 -0.39943,-3.455619 0.65696,-1.063404 2.14404,-0.856747 3.04678,-0.254061 0.55917,0.574537 0.36898,-0.179964 0.39856,-0.553388 0.0839,-0.665216 -0.97239,-0.606427 -1.42416,-0.786129 -0.1654,-0.02376 -0.33253,-0.03607 -0.49966,-0.03499 z M 8.7807805,3.357471 c 0.04122,1.588588 -0.09266,3.189826 0.08835,4.769773 0.2882975,1.277783 1.9188885,1.782465 2.9848915,1.142565 0.570565,-0.314218 0.986078,-0.69488 1.039564,0.10363 0.612721,0.09893 1.075923,-0.03721 0.904769,-0.715925 0,-1.766681 0,-3.533362 0,-5.300043 -0.336589,0 -0.673177,0 -1.009766,0 0,1.49349 0,2.986979 0,4.480469 C 12.049818,8.472357 10.472687,9.063989 9.935767,7.91136 9.659305,7.011411 9.836127,6.052926 9.790541,5.123616 c 0,-0.588714 0,-1.177427 0,-1.766141 -0.336588,0 -0.673175,0 -1.0097625,0 z m 51.8320305,0 c 0,2 0,4 0,6 0.336589,0 0.673177,0 1.009766,0 0,-1.419937 0,-2.839875 0,-4.259812 C 62.305908,4.248182 63.623484,4.470105 64.373218,4.285654 64.662142,3.202819 63.474485,3.180188 62.769621,3.532115 62.33026,3.657729 61.329158,4.669937 61.650752,3.548925 61.578242,3.173842 60.901187,3.422475 60.612811,3.357471 Z m 16.503907,0 c 0.04121,1.588688 -0.09266,3.190025 0.08837,4.770072 0.288873,1.277581 1.919942,1.782057 2.986002,1.1425 0.570429,-0.314472 0.984752,-0.694831 1.038441,0.103396 0.612721,0.09893 1.075923,-0.03721 0.904769,-0.715925 0,-1.766681 0,-3.533362 0,-5.300043 -0.336589,0 -0.673177,0 -1.009766,0 0,1.49349 0,2.986979 0,4.480469 -0.737676,0.635545 -2.315168,1.225256 -2.851584,0.0736 -0.275539,-0.900165 -0.09889,-1.858559 -0.144511,-2.787924 0,-0.588714 0,-1.177427 0,-1.766141 -0.337239,0 -0.674478,0 -1.011717,0 z m 13.86914,0 c 0,2 0,4 0,6 0.336587,0 0.673175,0 1.009762,0 0,-2 0,-4 0,-6 -0.336587,0 -0.673175,0 -1.009762,0 z m -34.488281,0.66597 c 0.834454,-0.299054 2.115691,1.166553 1.301584,1.666015 -1.045841,0 -2.091681,0 -3.137522,0 0.03552,-0.931763 0.895214,-1.740889 1.835938,-1.666015 z m 39.843754,0.03711 c 1.27816,-0.08268 1.86571,1.379182 1.72663,2.457497 0.1044,1.157321 -0.86159,2.466524 -2.11858,2.102129 -1.08783,-0.246126 -1.39757,-1.435427 -1.33929,-2.408618 -0.0443,-0.944333 0.47196,-2.10084 1.54394,-2.143186 z m 16.300779,0 c 1.27817,-0.08269 1.86571,1.379181 1.72663,2.457497 0.10438,1.157271 -0.86148,2.466417 -2.11844,2.102171 -1.08845,-0.245686 -1.39611,-1.435626 -1.33748,-2.408502 -0.0438,-0.943654 0.47077,-2.100327 1.54223,-2.143379 z m -26.097658,0.05469 c 0.586064,0.02158 1.671157,0.05379 1.433594,0.922208 0,0.947805 0,1.895609 0,2.843414 C 87.206225,8.596336 85.56361,8.983149 85.022883,7.812673 84.602816,6.825616 84.604605,5.534304 85.26489,4.653333 85.583832,4.295926 86.065339,4.090903 86.544452,4.115238 Z M 34.085468,6.210945 c 0,0.55664 0,1.113281 0,1.669921 -0.771631,0.679272 -2.403138,1.171243 -2.999156,0.05689 -0.341792,-1.047058 0.799111,-1.661463 1.692306,-1.626694 0.434258,-0.04959 0.871322,-0.06576 1.30685,-0.100121 z m 66.841792,1.615234 c 0,0.510417 0,1.020833 0,1.53125 0.42774,0 0.85547,0 1.28321,0 0,-0.510417 0,-1.020833 0,-1.53125 -0.42774,0 -0.85547,0 -1.28321,0 z" />
</g></svg>
